<svg xmlns="http://www.w3.org/2000/svg" viewBox="0 0 32 32" width="32" height="32">
  <!-- Background circle -->
  <circle cx="16" cy="16" r="16" fill="#0a192f"/>
  
  <!-- Letter A -->
  <path d="M8 24 L8 22.5 L10.5 16 L13.5 16 L16 22.5 L16 24 L14.5 24 L14 22 L10 22 L9.5 24 L8 24 Z M10.7 20.5 L13.3 20.5 L12 17 L10.7 20.5 Z" fill="#64ffda"/>
  
  <!-- Letter S -->
  <path d="M18 16.5 C18 15.67 18.33 15 19 14.5 C19.67 14 20.5 13.75 21.5 13.75 C22.5 13.75 23.33 14 24 14.5 C24.67 15 25 15.67 25 16.5 L25 17 L23.5 17 L23.5 16.5 C23.5 16.22 23.39 16 23.17 15.83 C22.94 15.67 22.61 15.58 22.17 15.58 C21.72 15.58 21.39 15.67 21.17 15.83 C20.94 16 20.83 16.22 20.83 16.5 C20.83 16.78 20.94 17 21.17 17.17 C21.39 17.33 21.72 17.42 22.17 17.42 L22.83 17.42 C23.72 17.42 24.44 17.67 24.97 18.17 C25.5 18.67 25.77 19.33 25.77 20.17 C25.77 21 25.44 21.67 24.77 22.17 C24.11 22.67 23.28 22.92 22.28 22.92 C21.28 22.92 20.44 22.67 19.77 22.17 C19.11 21.67 18.77 21 18.77 20.17 L18.77 19.67 L20.27 19.67 L20.27 20.17 C20.27 20.44 20.39 20.67 20.61 20.83 C20.83 21 21.17 21.08 21.61 21.08 C22.06 21.08 22.39 21 22.61 20.83 C22.83 20.67 22.94 20.44 22.94 20.17 C22.94 19.89 22.83 19.67 22.61 19.5 C22.39 19.33 22.06 19.25 21.61 19.25 L20.94 19.25 C20.06 19.25 19.33 19 18.8 18.5 C18.27 18 18 17.33 18 16.5 Z" fill="#64ffda"/>
</svg>